# xmcd
#
# Track frame offsets: 
#        150
#        11625
#        24462
#        33085
#        42882
#        53858
#        64651
#        74319
#        85700
#        96095
#        106714
#        118623
#        130195
#        142771
#        154671
#        167353
#        177936
#        189281
#        201274
#        213183
#        224217
#        236562
#        247814
#        261395
#
# Disc length: 3649 seconds
#
# Revision: 0
# Processed by: cddbd v1.5.2PL0 Copyright (c) Steve Scherf et al.
# Submitted via: ExactAudioCopy v1.1
#
DISCID=400e3f18
DTITLE=Jim Reeves - CD01_Milestones Of A Country Legend
DYEAR=2017
DGENRE=Country
TTITLE0=Roly Poly
TTITLE1=Have I told you Lately that I love you
TTITLE2=Breeze
TTITLE3=Waltzing on the Top of the World
TTITLE4=Oklahoma Hills
TTITLE5=Love Me A Little Bit More
TTITLE6=Tweedie O'Twill
TTITLE7=Each Time You Leave
TTITLE8=Ichabod Crane
TTITLE9=Your Old Love Letters
TTITLE10=Beyond the Shadow of a Doubt
TTITLE11=Highway To Nowhere
TTITLE12=Bimbo
TTITLE13=How Many
TTITLE14=Echo Bonita
TTITLE15=Where Does a Broken Heart Go
TTITLE16=Penny Candy
TTITLE17=Mother Went A-Walkin
TTITLE18=Mexican Joe
TTITLE19=Then I'll Stop Loving You
TTITLE20=Drinking Tequila
TTITLE21=Gypsy Heart
TTITLE22=What Were You Doing Last Night
TTITLE23=Let Me Love You a Little
EXTD=
EXTT0=
EXTT1=
EXTT2=
EXTT3=
EXTT4=
EXTT5=
EXTT6=
EXTT7=
EXTT8=
EXTT9=
EXTT10=
EXTT11=
EXTT12=
EXTT13=
EXTT14=
EXTT15=
EXTT16=
EXTT17=
EXTT18=
EXTT19=
EXTT20=
EXTT21=
EXTT22=
EXTT23=
PLAYORDER=
